<svg width="49" height="61" viewBox="0 0 49 61" fill="none" xmlns="http://www.w3.org/2000/svg">
<path d="M5.6012 57.162C4.7372 57.162 3.9692 56.994 3.2972 56.658C2.6372 56.31 2.1212 55.824 1.7492 55.2C1.3892 54.564 1.2092 53.838 1.2092 53.022V48.36C1.2092 47.544 1.3892 46.83 1.7492 46.218C2.1212 45.594 2.6372 45.114 3.2972 44.778C3.9692 44.43 4.7372 44.256 5.6012 44.256C6.4652 44.256 7.2272 44.424 7.8872 44.76C8.5472 45.084 9.0572 45.546 9.4172 46.146C9.7892 46.746 9.9752 47.442 9.9752 48.234V48.252C9.9752 48.312 9.9572 48.36 9.9212 48.396C9.8852 48.432 9.8432 48.45 9.7952 48.45L8.4272 48.522C8.3072 48.522 8.2472 48.468 8.2472 48.36V48.306C8.2472 47.538 8.0072 46.92 7.5272 46.452C7.0472 45.984 6.4052 45.75 5.6012 45.75C4.7972 45.75 4.1492 45.984 3.6572 46.452C3.1772 46.92 2.9372 47.538 2.9372 48.306V53.094C2.9372 53.862 3.1772 54.48 3.6572 54.948C4.1492 55.416 4.7972 55.65 5.6012 55.65C6.4052 55.65 7.0472 55.416 7.5272 54.948C8.0072 54.48 8.2472 53.862 8.2472 53.094V53.058C8.2472 52.95 8.3072 52.896 8.4272 52.896L9.7952 52.968C9.9152 52.968 9.9752 53.028 9.9752 53.148C9.9752 53.94 9.7892 54.642 9.4172 55.254C9.0572 55.854 8.5472 56.322 7.8872 56.658C7.2272 56.994 6.4652 57.162 5.6012 57.162ZM11.5488 57C11.4288 57 11.3688 56.94 11.3688 56.82V44.58C11.3688 44.46 11.4288 44.4 11.5488 44.4H12.9168C13.0368 44.4 13.0968 44.46 13.0968 44.58V56.82C13.0968 56.94 13.0368 57 12.9168 57H11.5488ZM18.4491 57.144C17.5611 57.144 16.7871 56.922 16.1271 56.478C15.4671 56.022 15.0051 55.392 14.7411 54.588C14.5251 53.94 14.4171 53.208 14.4171 52.392C14.4171 51.54 14.5191 50.82 14.7231 50.232C14.9871 49.44 15.4491 48.822 16.1091 48.378C16.7691 47.922 17.5551 47.694 18.4671 47.694C19.3311 47.694 20.0811 47.922 20.7171 48.378C21.3651 48.822 21.8271 49.434 22.1031 50.214C22.3191 50.826 22.4271 51.546 22.4271 52.374C22.4271 53.214 22.3191 53.952 22.1031 54.588C21.8391 55.392 21.3831 56.022 20.7351 56.478C20.0871 56.922 19.3251 57.144 18.4491 57.144ZM18.4491 55.65C18.9291 55.65 19.3491 55.518 19.7091 55.254C20.0691 54.978 20.3271 54.594 20.4831 54.102C20.6151 53.646 20.6811 53.082 20.6811 52.41C20.6811 51.738 20.6211 51.18 20.5011 50.736C20.3451 50.244 20.0871 49.866 19.7271 49.602C19.3671 49.326 18.9291 49.188 18.4131 49.188C17.9211 49.188 17.4951 49.326 17.1351 49.602C16.7751 49.866 16.5171 50.244 16.3611 50.736C16.2291 51.156 16.1631 51.714 16.1631 52.41C16.1631 53.106 16.2291 53.67 16.3611 54.102C16.5051 54.594 16.7571 54.978 17.1171 55.254C17.4891 55.518 17.9331 55.65 18.4491 55.65ZM29.2435 48.018C29.2435 47.898 29.3035 47.838 29.4235 47.838H30.7735C30.8935 47.838 30.9535 47.898 30.9535 48.018V56.82C30.9535 56.94 30.8935 57 30.7735 57H29.4235C29.3035 57 29.2435 56.94 29.2435 56.82V56.154C29.2435 56.13 29.2315 56.118 29.2075 56.118C29.1955 56.106 29.1775 56.112 29.1535 56.136C28.6735 56.796 27.9355 57.126 26.9395 57.126C26.3515 57.126 25.8055 57.012 25.3015 56.784C24.8095 56.556 24.4135 56.22 24.1135 55.776C23.8135 55.332 23.6635 54.792 23.6635 54.156V48.018C23.6635 47.898 23.7235 47.838 23.8435 47.838H25.1935C25.3135 47.838 25.3735 47.898 25.3735 48.018V53.616C25.3735 54.24 25.5355 54.732 25.8595 55.092C26.1955 55.452 26.6635 55.632 27.2635 55.632C27.8635 55.632 28.3435 55.452 28.7035 55.092C29.0635 54.72 29.2435 54.228 29.2435 53.616V48.018ZM38.263 44.58C38.263 44.46 38.323 44.4 38.443 44.4H39.811C39.931 44.4 39.991 44.46 39.991 44.58V56.82C39.991 56.94 39.931 57 39.811 57H38.443C38.323 57 38.263 56.94 38.263 56.82V56.226C38.263 56.202 38.251 56.184 38.227 56.172C38.215 56.16 38.197 56.166 38.173 56.19C37.909 56.49 37.597 56.724 37.237 56.892C36.877 57.06 36.487 57.144 36.067 57.144C35.203 57.144 34.483 56.934 33.907 56.514C33.343 56.082 32.929 55.476 32.665 54.696C32.437 54.06 32.323 53.292 32.323 52.392C32.323 51.552 32.419 50.826 32.611 50.214C32.863 49.422 33.277 48.804 33.853 48.36C34.429 47.916 35.167 47.694 36.067 47.694C36.475 47.694 36.859 47.778 37.219 47.946C37.591 48.102 37.909 48.33 38.173 48.63C38.197 48.654 38.215 48.66 38.227 48.648C38.251 48.636 38.263 48.618 38.263 48.594V44.58ZM37.813 54.678C38.089 54.174 38.227 53.418 38.227 52.41C38.227 51.402 38.077 50.634 37.777 50.106C37.429 49.494 36.919 49.188 36.247 49.188C35.527 49.188 34.993 49.476 34.645 50.052C34.261 50.652 34.069 51.444 34.069 52.428C34.069 53.352 34.219 54.096 34.519 54.66C34.867 55.32 35.437 55.65 36.229 55.65C36.925 55.65 37.453 55.326 37.813 54.678ZM41.3543 60.582C41.2703 60.582 41.2283 60.522 41.2283 60.402V59.34C41.2283 59.22 41.2883 59.16 41.4083 59.16H41.4443C41.9243 59.148 42.3023 59.088 42.5783 58.98C42.8543 58.872 43.0823 58.668 43.2623 58.368C43.4423 58.08 43.6163 57.642 43.7843 57.054C43.7963 57.042 43.7963 57.024 43.7843 57C43.7843 56.964 43.7843 56.946 43.7843 56.946L40.7783 48.036L40.7603 47.964C40.7603 47.88 40.8143 47.838 40.9223 47.838H42.3803C42.4883 47.838 42.5603 47.886 42.5963 47.982L44.6303 54.768C44.6423 54.792 44.6603 54.804 44.6843 54.804C44.7083 54.804 44.7263 54.792 44.7383 54.768L46.7543 47.982C46.7903 47.886 46.8623 47.838 46.9703 47.838H48.3923C48.5243 47.838 48.5723 47.904 48.5363 48.036L45.2603 57.63C44.9843 58.458 44.7083 59.07 44.4323 59.466C44.1563 59.874 43.7963 60.162 43.3523 60.33C42.9083 60.498 42.2843 60.582 41.4803 60.582H41.3543Z" fill="black"/>
<path d="M41.4843 21.2211C42.1 20.5124 42.6043 19.6759 43.0609 18.6063C43.1704 18.348 43.1496 18.0524 43.0035 17.8124C42.8574 17.5724 42.6043 17.4185 42.3243 17.3976C41.3774 17.328 40.6278 17.0472 39.7887 16.6437C37.0643 15.3585 35.3043 12.5811 35.3043 9.56891C35.3043 8.66456 35.5643 7.64283 36.0983 6.44457C36.2139 6.1863 36.1957 5.88717 36.0504 5.64457C35.9052 5.40109 35.6513 5.24457 35.3678 5.2237C35.1861 5.20978 34.92 5.21326 34.6817 5.21761L34.4348 5.22109C31.4243 5.22109 28.6339 6.63848 26.8322 9.01848C25.9052 8.81065 24.9565 8.69935 24 8.69935C17.7974 8.69935 12.4391 13.1515 11.2252 19.1646C7.19043 19.4741 4 22.848 4 26.9602C4 31.275 7.5113 34.7863 11.8261 34.7863H36.1739C40.4887 34.7863 44 31.275 44 26.9602C44 24.7715 43.073 22.6924 41.4843 21.2211ZM27.9087 10.475C29.2861 8.38804 31.5513 7.09935 34.027 6.97152C33.7174 7.90283 33.5652 8.76022 33.5652 9.56891C33.5652 13.2507 35.7165 16.6446 39.04 18.2133C39.6157 18.4898 40.24 18.7585 40.967 18.9376C40.58 19.6289 40.1461 20.1741 39.6209 20.642C38.1965 21.9133 36.3548 22.6124 34.4348 22.6124C33.2548 22.6124 32.1322 22.3602 31.093 21.8611C28.3687 20.5759 26.6087 17.7985 26.6087 14.7863C26.6087 13.2446 27.0574 11.7541 27.9087 10.475ZM36.1739 33.0472H11.8261C8.46957 33.0472 5.73913 30.3167 5.73913 26.9602C5.73913 23.6037 8.46956 20.8733 11.7826 20.8654C11.7922 20.8672 11.8026 20.8672 11.813 20.868C11.8174 20.8689 11.8209 20.8715 11.8252 20.8724C11.8652 20.8785 11.9052 20.8811 11.9452 20.8811C11.9461 20.8811 11.9478 20.8811 11.9487 20.8811C12.4017 20.8811 12.8678 20.9402 13.3348 21.0576C13.3687 21.0724 13.4043 21.0846 13.4409 21.0941C14.9713 21.5115 16.3052 22.5411 17.1 23.9167C17.34 24.3324 17.8713 24.475 18.2878 24.2341C18.7035 23.9941 18.8461 23.462 18.6052 23.0463C17.6043 21.3141 15.9391 20.0098 14.0217 19.4515C13.9817 19.4333 13.94 19.4185 13.8965 19.4072C13.5922 19.3254 13.2878 19.2637 12.9835 19.2202C14.1452 14.1541 18.7235 10.4385 24.0009 10.4385C24.62 10.4385 25.2357 10.495 25.8426 10.5967C25.2052 11.8941 24.8696 13.3202 24.8696 14.7863C24.8696 18.468 27.0209 21.862 30.3452 23.4306C31.6157 24.042 32.9913 24.3515 34.4348 24.3515C36.533 24.3515 38.553 23.6628 40.2026 22.408C41.5 23.5567 42.2609 25.2141 42.2609 26.9602C42.2609 30.3167 39.5304 33.0472 36.1739 33.0472Z" fill="#AAAAAA"/>
</svg>
